<?xml version="1.0" standalone="no"?><svg xmlns="http://www.w3.org/2000/svg" viewBox="0 0 1440 320"><path fill="#0099ff" fill-opacity="1" d="M0,0L18.5,21.3C36.9,43,74,85,111,112C147.7,139,185,149,222,138.7C258.5,128,295,96,332,112C369.2,128,406,192,443,224C480,256,517,256,554,234.7C590.8,213,628,171,665,128C701.5,85,738,43,775,58.7C812.3,75,849,149,886,170.7C923.1,192,960,160,997,133.3C1033.8,107,1071,85,1108,69.3C1144.6,53,1182,43,1218,48C1255.4,53,1292,75,1329,69.3C1366.2,64,1403,32,1422,16L1440,0L1440,320L1421.5,320C1403.1,320,1366,320,1329,320C1292.3,320,1255,320,1218,320C1181.5,320,1145,320,1108,320C1070.8,320,1034,320,997,320C960,320,923,320,886,320C849.2,320,812,320,775,320C738.5,320,702,320,665,320C627.7,320,591,320,554,320C516.9,320,480,320,443,320C406.2,320,369,320,332,320C295.4,320,258,320,222,320C184.6,320,148,320,111,320C73.8,320,37,320,18,320L0,320Z"></path></svg>